Coordinates
version=1
nRows=10
nColumns=63
inDegrees=yes

Units are S.I. units (second, meters, Newtons, ...)
If the header above contains a line with 'inDegrees', this indicates whether rotational values are in degrees (yes) or radians (no).

endheader
time	pelvis_tilt	pelvis_list	pelvis_rotation	pelvis_tx	pelvis_ty	pelvis_tz	hip_flexion_r	hip_adduction_r	hip_rotation_r	knee_angle_r	knee_angle_r_beta	ankle_angle_r	subtalar_angle_r	mtp_angle_r	hip_flexion_l	hip_adduction_l	hip_rotation_l	knee_angle_l	knee_angle_l_beta	ankle_angle_l	subtalar_angle_l	mtp_angle_l	L5_S1_Flex_Ext	L5_S1_Lat_Bending	L5_S1_axial_rotation	L4_L5_Flex_Ext	L4_L5_Lat_Bending	L4_L5_axial_rotation	L3_L4_Flex_Ext	L3_L4_Lat_Bending	L3_L4_axial_rotation	L2_L3_Flex_Ext	L2_L3_Lat_Bending	L2_L3_axial_rotation	L1_L2_Flex_Ext	L1_L2_Lat_Bending	L1_L2_axial_rotation	L1_T12_Flex_Ext	L1_T12_Lat_Bending	L1_T12_axial_rotation	Abs_r3	Abs_r2	Abs_r1	Abs_t1	Abs_t2	neck_flexion	neck_bending	neck_rotation	arm_flex_r	arm_add_r	arm_rot_r	elbow_flex_r	pro_sup_r	wrist_flex_r	wrist_dev_r	arm_flex_l	arm_add_l	arm_rot_l	elbow_flex_l	pro_sup_l	wrist_flex_l	wrist_dev_l
      0.00000000	     -3.16852494	     -3.68075979	     92.99426992	      0.43676562	      0.68197154	      1.05213107	      3.50240311	     -2.81711903	      1.09280035	      4.72129042	      0.08240206	     21.78430889	      0.49337606	      0.00000000	      6.41443574	      1.45564454	     -8.57528794	     11.21908160	      0.19580991	     27.74528817	      8.27254998	      0.00000000	      0.27965012	     -0.42253129	      2.57900537	      0.51933824	     -0.56196662	      2.74019320	      0.45943718	     -1.02734259	      2.74019320	      0.31961212	     -1.02734259	      2.25662970	      0.25968310	     -0.86162581	      2.09544186	      0.15979208	     -0.65450097	      1.93425403	      1.99751285	     -4.77975850	     14.34365415	      0.00000000	      0.00000000	     28.05208545	     -5.98730774	     -9.43954861	     -4.39908275	    -14.86671091	     27.23467034	     84.17052054	     41.84089762	     -4.24351673	     29.62375407	     18.28841291	    -16.26066430	     55.40158903	     74.98900957	     81.88590906	     19.54972601	     18.80981376
      0.01694915	     -3.08782941	     -3.45242698	     92.18541386	      0.43746822	      0.68235907	      1.05101800	      3.07495210	     -2.61695481	      2.29156807	      3.43019904	      0.05986827	     22.37757029	      0.05837534	      0.00000000	      5.56279616	      1.49739080	     -8.07512484	     10.27804573	      0.17938574	     27.19672109	      6.96412549	      0.00000000	      0.26219707	     -0.38913496	      2.69637049	      0.48692617	     -0.51754949	      2.86489365	      0.43076356	     -0.94614274	      2.86489365	      0.29966503	     -0.94614274	      2.35932418	      0.24347620	     -0.79352401	      2.19080102	      0.14981940	     -0.60277005	      2.02227787	      1.87284742	     -4.40197247	     14.99640375	      0.00000000	      0.00000000	     28.03506635	     -6.12776922	     -8.81051262	     -3.94382272	    -15.50028728	     28.57170379	     83.83886758	     42.79260875	     -4.03762879	     30.57784286	     18.31117059	    -16.08362633	     55.81667537	     75.49176409	     79.21027930	     16.63793624	     21.13588199
      0.03389831	     -3.05441710	     -3.28738474	     91.53999629	      0.43803973	      0.68251842	      1.04988523	      2.72124349	     -2.51318094	      2.82844282	      2.49884994	      0.04361316	     22.73111710	      0.28259761	      0.00000000	      4.87057229	      1.52542817	     -8.11943424	      9.54718922	      0.16662989	     26.80016544	      6.53483009	      0.00000000	      0.25697429	     -0.36865237	      2.80361853	      0.47722695	     -0.49030765	      2.97884469	      0.42218306	     -0.89634137	      2.97884469	      0.29369591	     -0.89634137	      2.45316621	      0.23862632	     -0.75175591	      2.27794005	      0.14683511	     -0.57104252	      2.10271390	      1.83554163	     -4.17026935	     15.59288516	      0.00000000	      0.00000000	     28.02918864	     -6.37522396	     -8.43030841	     -3.97038523	    -15.71961953	     28.91492412	     83.76774221	     43.13308615	     -4.02847787	     30.93737832	     18.25862464	    -15.92748510	     55.87575033	     75.61204609	     78.59918628	     15.94808417	     21.68502590
      0.05084746	     -3.16598560	     -3.12955037	     90.92449454	      0.43863098	      0.68236705	      1.04889974	      2.51934960	     -2.54555225	      4.42492460	      2.11228796	      0.03686638	     22.81001315	     -1.15051450	      0.00000000	      4.20526915	      1.91392990	     -5.62716088	      8.74908913	      0.15270041	     25.83625908	      2.49245291	      0.00000000	      0.24956421	     -0.37138701	      2.93252103	      0.46346569	     -0.49394472	      3.11580359	      0.41000904	     -0.90299037	      3.11580359	      0.28522693	     -0.90299037	      2.56595590	      0.23174532	     -0.75733238	      2.38267333	      0.14260099	     -0.57527847	      2.19939077	      1.78261218	     -4.20120409	     16.30980219	      0.00000000	      0.00000000	     28.03306151	     -6.51140377	     -8.28088322	     -4.49110141	    -15.38226562	     27.89526260	     83.81493267	     45.88932405	     -2.68148289	     31.21282622	     18.44314794	    -16.05104088	     56.75199115	     75.93437949	     74.93745158	     13.41149617	     23.01265288
      0.06779661	     -3.28860179	     -2.99701578	     90.46780807	      0.43919998	      0.68221275	      1.04807715	      2.44700990	     -2.65976976	      3.19371431	      2.14972772	      0.03751983	     23.50008695	      1.17352721	      0.00000000	      3.71740534	      2.06138500	     -5.83429316	      8.28402735	      0.14458355	     25.54469203	      2.32146532	      0.00000000	      0.24397181	     -0.37894587	      3.01116840	      0.45308005	     -0.50399800	      3.19936642	      0.40082129	     -0.92136898	      3.19936642	      0.27883538	     -0.92136898	      2.63477235	      0.22655222	     -0.77274641	      2.44657432	      0.13940549	     -0.58698715	      2.25837630	      1.74266624	     -4.28671145	     16.74721527	      0.00000000	      0.00000000	     28.04575591	     -6.53000193	     -7.95677729	     -5.05807870	    -14.89483994	     26.89051417	     83.99686406	     46.24013868	     -2.79787433	     30.86155747	     18.40442936	    -16.24537141	     57.05724082	     76.03470596	     73.20748911	     12.45954248	     22.88039418
      0.08474576	     -3.33154988	     -2.97051527	     90.03200581	      0.43958878	      0.68178650	      1.04733851	      2.39262987	     -2.63508049	      4.86045720	      2.08650851	      0.03641644	     23.15640130	     -0.67362367	      0.00000000	      3.50276941	      2.25618664	     -4.22849161	      8.07210543	      0.14088482	     24.97089965	     -0.57167749	      0.00000000	      0.25559490	     -0.37723280	      3.06650000	      0.47466528	     -0.50171963	      3.25815625	      0.41991686	     -0.91720384	      3.25815625	      0.29211941	     -0.91720384	      2.68318750	      0.23734542	     -0.76925314	      2.49153125	      0.14604692	     -0.58433361	      2.29987500	      1.82568879	     -4.26733293	     17.05495306	      0.00000000	      0.00000000	     28.05562640	     -6.61731097	     -7.66124495	     -5.59577037	    -14.35344068	     25.70245326	     84.20481244	     48.59611007	     -2.08770153	     30.88316685	     17.98053695	    -16.27949475	     56.24870424	     75.96842611	     75.37703196	     14.53363659	     22.05019614
      0.10169492	     -3.38088872	     -2.80850919	     89.88980718	      0.43983557	      0.68171814	      1.04713101	      2.26000925	     -2.66426156	      4.11790987	      2.21930696	      0.03873421	     23.38491835	      0.49058895	      0.00000000	      3.30399567	      2.27929757	     -4.64520541	      8.09624230	      0.14130609	     25.03801972	     -0.24594999	      0.00000000	      0.23166729	     -0.38015236	      3.08520628	      0.43022933	     -0.50560264	      3.27803167	      0.38060619	     -0.92430246	      3.27803167	      0.26477255	     -0.92430246	      2.69955549	      0.21512625	     -0.77520670	      2.50673010	      0.13237469	     -0.58885601	      2.31390471	      1.65477629	     -4.30035958	     17.15899177	      0.00000000	      0.00000000	     28.05452885	     -6.58690486	     -7.58630738	     -5.89664657	    -13.99534406	     25.20510362	     84.22093344	     48.41493587	     -2.14409295	     29.75707358	     18.07406004	    -16.49463292	     56.57331585	     75.89655164	     74.25912126	     14.22964204	     21.52864271
      0.11864407	     -3.46623211	     -2.89463684	     89.53153233	      0.44010392	      0.68130873	      1.04690254	      2.55108852	     -2.71993012	      4.47003748	      2.61099718	      0.04557050	     23.50332837	      0.28337421	      0.00000000	      3.37736593	      2.39489316	     -4.77950442	      8.07260752	      0.14089358	     25.04119371	     -0.77365827	      0.00000000	      0.24085974	     -0.38567176	      3.16373858	      0.44730062	     -0.51294344	      3.36147224	      0.39570847	     -0.93772231	      3.36147224	      0.27527860	     -0.93772231	      2.76827125	      0.22366235	     -0.78646184	      2.57053759	      0.13762726	     -0.59740555	      2.37280393	      1.72043703	     -4.36279604	     17.59576484	      0.00000000	      0.00000000	     28.04546185	     -6.46102135	     -7.56443232	     -6.58937674	    -13.23672338	     23.95489139	     84.38790666	     48.78303461	     -2.35919690	     30.38653430	     17.82536672	    -16.43070648	     55.96496956	     75.72279841	     76.46301938	     16.28024104	     20.60663485
      0.13559322	     -3.49758894	     -2.89576863	     89.51021053	      0.44016935	      0.68124948	      1.04696527	      2.72421200	     -2.73534551	      4.20844814	      2.98218181	      0.05204889	     23.74004273	      0.61918299	      0.00000000	      3.51717902	      2.38308129	     -5.10753460	      8.27794446	      0.14447739	     25.32375604	     -0.38549009	      0.00000000	      0.22481873	     -0.38747867	      3.16499033	      0.41751086	     -0.51534663	      3.36280223	      0.36935469	     -0.94211563	      3.36280223	      0.25694532	     -0.94211563	      2.76936654	      0.20876667	     -0.79014650	      2.57155465	      0.12846142	     -0.60020446	      2.37374275	      1.60585768	     -4.38323618	     17.60272674	      0.00000000	      0.00000000	     28.01830955	     -6.29601041	     -7.69373287	     -6.81652984	    -12.78151992	     23.64819324	     84.02404638	     48.82364618	     -1.96470217	     30.06281440	     17.85585640	    -16.51140110	     55.90623496	     75.53564652	     77.56332500	     17.31412489	     19.65066890
      0.15254237	     -3.51131810	     -2.96824268	     89.32177925	      0.44040701	      0.68116292	      1.04722571	      3.11482034	     -2.75026640	      3.45253041	      3.53879225	      0.06176358	     24.22462544	      1.85046872	      0.00000000	      3.72603862	      2.31306705	     -6.17001729	      8.44185856	      0.14733823	     25.73523839	      0.67768116	      0.00000000	      0.21265600	     -0.38764059	      3.20392699	      0.39492345	     -0.51556198	      3.40417243	      0.34937254	     -0.94250933	      3.40417243	      0.24304454	     -0.94250933	      2.80343612	      0.19747236	     -0.79047669	      2.60319068	      0.12151164	     -0.60045527	      2.40294524	      1.51898052	     -4.38506787	     17.81928074	      0.00000000	      0.00000000	     27.97810948	     -6.11669202	     -8.12627031	     -6.97956007	    -12.41975602	     23.50343701	     83.48474809	     49.09028324	     -1.37430329	     29.92015136	     17.90736666	    -16.59078089	     56.00078968	     75.47035110	     77.99592705	     17.67304593	     19.34413224
